<?xml version="1.0" encoding="UTF-8"?>
<!DOCTYPE svg PUBLIC "-//W3C//DTD SVG 1.1//EN" "http://www.w3.org/Graphics/SVG/1.1/DTD/svg11.dtd">
<svg xmlns="http://www.w3.org/2000/svg" version="1.1" width="640px" height="640px" style="shape-rendering:geometricPrecision; text-rendering:geometricPrecision; image-rendering:optimizeQuality; fill-rule:evenodd; clip-rule:evenodd" xmlns:xlink="http://www.w3.org/1999/xlink">
<g><path style="opacity:1" fill="#ececec" d="M -0.5,-0.5 C 212.833,-0.5 426.167,-0.5 639.5,-0.5C 639.5,212.833 639.5,426.167 639.5,639.5C 426.167,639.5 212.833,639.5 -0.5,639.5C -0.5,426.167 -0.5,212.833 -0.5,-0.5 Z"/></g>
<g><path style="opacity:1" fill="#df9c63" d="M 204.5,283.5 C 199.305,283.179 194.305,283.513 189.5,284.5C 184.167,284.5 178.833,284.5 173.5,284.5C 173.5,289.167 173.5,293.833 173.5,298.5C 173.167,298.5 172.833,298.5 172.5,298.5C 172.5,293.167 172.5,287.833 172.5,282.5C 183.346,282.172 194.013,282.506 204.5,283.5 Z"/></g>
<g><path style="opacity:1" fill="#303543" d="M 206.5,283.5 C 227.5,283.5 248.5,283.5 269.5,283.5C 269.826,291.684 269.492,299.684 268.5,307.5C 253.167,307.5 237.833,307.5 222.5,307.5C 222.806,304.615 222.473,301.948 221.5,299.5C 221.5,298.833 221.167,298.5 220.5,298.5C 216.036,297.356 211.37,296.69 206.5,296.5C 206.5,292.167 206.5,287.833 206.5,283.5 Z"/></g>
<g><path style="opacity:1" fill="#f6853a" d="M 189.5,284.5 C 189.002,289.152 188.669,293.819 188.5,298.5C 183.5,298.5 178.5,298.5 173.5,298.5C 173.5,293.833 173.5,289.167 173.5,284.5C 178.833,284.5 184.167,284.5 189.5,284.5 Z"/></g>
<g><path style="opacity:1" fill="#442c21" d="M 205.5,283.5 C 205.833,283.5 206.167,283.5 206.5,283.5C 206.5,287.833 206.5,292.167 206.5,296.5C 211.37,296.69 216.036,297.356 220.5,298.5C 219.5,298.5 218.5,298.5 217.5,298.5C 213.5,298.5 209.5,298.5 205.5,298.5C 205.5,293.5 205.5,288.5 205.5,283.5 Z"/></g>
<g><path style="opacity:1" fill="#f4ae46" d="M 204.5,283.5 C 204.833,283.5 205.167,283.5 205.5,283.5C 205.5,288.5 205.5,293.5 205.5,298.5C 200.13,298.392 194.797,298.725 189.5,299.5C 189.2,304.099 189.533,308.599 190.5,313C 195.489,313.499 200.489,313.666 205.5,313.5C 205.5,318.833 205.5,324.167 205.5,329.5C 205.167,329.5 204.833,329.5 204.5,329.5C 199.5,329.5 194.5,329.5 189.5,329.5C 189.821,323.974 189.488,318.64 188.5,313.5C 185.038,312.518 181.371,312.185 177.5,312.5C 180.36,311.756 183.36,311.089 186.5,310.5C 187.429,309.311 187.762,307.978 187.5,306.5C 181.599,306.06 181.266,304.727 186.5,302.5C 182.388,302.065 178.555,301.065 175,299.5C 174.617,300.056 174.117,300.389 173.5,300.5C 173.5,299.833 173.5,299.167 173.5,298.5C 178.5,298.5 183.5,298.5 188.5,298.5C 188.669,293.819 189.002,289.152 189.5,284.5C 194.305,283.513 199.305,283.179 204.5,283.5 Z"/></g>
<g><path style="opacity:1" fill="#1b1b1b" d="M 346.5,301.5 C 351.5,301.5 356.5,301.5 361.5,301.5C 361.5,303.167 361.5,304.833 361.5,306.5C 359.833,306.5 358.167,306.5 356.5,306.5C 356.5,310.167 356.5,313.833 356.5,317.5C 354.5,317.5 352.5,317.5 350.5,317.5C 350.5,313.833 350.5,310.167 350.5,306.5C 349.167,306.5 347.833,306.5 346.5,306.5C 346.5,304.833 346.5,303.167 346.5,301.5 Z"/></g>
<g><path style="opacity:1" fill="#151515" d="M 288.5,301.5 C 293.5,301.5 298.5,301.5 303.5,301.5C 304.167,305.5 302.5,307.167 298.5,306.5C 298.5,310.167 298.5,313.833 298.5,317.5C 296.833,317.5 295.167,317.5 293.5,317.5C 293.5,313.833 293.5,310.167 293.5,306.5C 291.833,306.5 290.167,306.5 288.5,306.5C 288.5,304.833 288.5,303.167 288.5,301.5 Z"/></g>
<g><path style="opacity:1" fill="#daad64" d="M 172.5,298.5 C 172.833,298.5 173.167,298.5 173.5,298.5C 173.5,299.167 173.5,299.833 173.5,300.5C 173.335,304.182 173.501,307.848 174,311.5C 175.011,312.337 176.178,312.67 177.5,312.5C 181.371,312.185 185.038,312.518 188.5,313.5C 186.167,313.5 183.833,313.5 181.5,313.5C 178.5,313.5 175.5,313.5 172.5,313.5C 172.5,308.5 172.5,303.5 172.5,298.5 Z"/></g>
<g><path style="opacity:1" fill="#ea864a" d="M 205.5,298.5 C 209.5,298.5 213.5,298.5 217.5,298.5C 216.597,301.391 216.264,304.391 216.5,307.5C 215.5,307.5 214.5,307.5 213.5,307.5C 213.662,305.473 213.495,303.473 213,301.5C 211.989,300.663 210.822,300.33 209.5,300.5C 209.5,304.167 209.5,307.833 209.5,311.5C 213.167,311.5 216.833,311.5 220.5,311.5C 220.5,307.167 220.5,302.833 220.5,298.5C 221.167,298.5 221.5,298.833 221.5,299.5C 221.5,302.5 221.5,305.5 221.5,308.5C 221.5,310.167 221.5,311.833 221.5,313.5C 221.167,313.5 220.833,313.5 220.5,313.5C 215.5,313.5 210.5,313.5 205.5,313.5C 205.5,310.167 205.5,306.833 205.5,303.5C 204.5,303.5 203.5,303.5 202.5,303.5C 202.492,306.545 202.159,309.545 201.5,312.5C 200.5,312.5 199.5,312.5 198.5,312.5C 198.885,308.675 199.885,305.009 201.5,301.5C 203.444,300.811 205.444,300.311 207.5,300C 206.584,299.722 205.918,299.222 205.5,298.5 Z"/></g>
<g><path style="opacity:1" fill="#f98336" d="M 217.5,298.5 C 218.5,298.5 219.5,298.5 220.5,298.5C 220.5,302.833 220.5,307.167 220.5,311.5C 216.833,311.5 213.167,311.5 209.5,311.5C 209.5,307.833 209.5,304.167 209.5,300.5C 210.822,300.33 211.989,300.663 213,301.5C 213.495,303.473 213.662,305.473 213.5,307.5C 214.5,307.5 215.5,307.5 216.5,307.5C 216.264,304.391 216.597,301.391 217.5,298.5 Z"/></g>
<g><path style="opacity:1" fill="#756f75" d="M 221.5,299.5 C 222.473,301.948 222.806,304.615 222.5,307.5C 237.833,307.5 253.167,307.5 268.5,307.5C 253.009,308.496 237.342,308.83 221.5,308.5C 221.5,305.5 221.5,302.5 221.5,299.5 Z"/></g>
<g><path style="opacity:1" fill="#f7b83a" d="M 177.5,312.5 C 176.178,312.67 175.011,312.337 174,311.5C 173.501,307.848 173.335,304.182 173.5,300.5C 174.117,300.389 174.617,300.056 175,299.5C 178.555,301.065 182.388,302.065 186.5,302.5C 181.266,304.727 181.599,306.06 187.5,306.5C 187.762,307.978 187.429,309.311 186.5,310.5C 183.36,311.089 180.36,311.756 177.5,312.5 Z"/></g>
<g><path style="opacity:1" fill="#f68738" d="M 205.5,298.5 C 205.918,299.222 206.584,299.722 207.5,300C 205.444,300.311 203.444,300.811 201.5,301.5C 199.885,305.009 198.885,308.675 198.5,312.5C 199.5,312.5 200.5,312.5 201.5,312.5C 202.159,309.545 202.492,306.545 202.5,303.5C 203.5,303.5 204.5,303.5 205.5,303.5C 205.5,306.833 205.5,310.167 205.5,313.5C 200.489,313.666 195.489,313.499 190.5,313C 189.533,308.599 189.2,304.099 189.5,299.5C 194.797,298.725 200.13,298.392 205.5,298.5 Z"/></g>
<g><path style="opacity:1" fill="#171717" d="M 373.5,312.5 C 364.792,312.698 364.458,313.698 372.5,315.5C 369.469,317.691 366.135,318.024 362.5,316.5C 358.638,308.862 360.972,305.362 369.5,306C 372.693,307.026 374.026,309.192 373.5,312.5 Z"/></g>
<g><path style="opacity:1" fill="#141414" d="M 304.5,305.5 C 306.167,305.5 307.833,305.5 309.5,305.5C 309.5,308.167 309.5,310.833 309.5,313.5C 310.5,313.5 311.5,313.5 312.5,313.5C 312.5,310.833 312.5,308.167 312.5,305.5C 314.167,305.5 315.833,305.5 317.5,305.5C 317.5,309.5 317.5,313.5 317.5,317.5C 313.843,316.358 310.177,316.191 306.5,317C 306,316.5 305.5,316 305,315.5C 304.502,312.183 304.335,308.85 304.5,305.5 Z"/></g>
<g><path style="opacity:1" fill="#929292" d="M 347.5,312.5 C 347.5,312.833 347.5,313.167 347.5,313.5C 344.989,313.838 342.655,313.838 340.5,313.5C 342.743,312.526 345.076,312.192 347.5,312.5 Z"/></g>
<g><path style="opacity:1" fill="#7e7e7e" d="M 373.5,312.5 C 373.737,313.791 373.404,314.791 372.5,315.5C 364.458,313.698 364.792,312.698 373.5,312.5 Z"/></g>
<g><path style="opacity:1" fill="#1e1e1e" d="M 389.5,305.5 C 395.454,305.449 401.454,305.615 407.5,306C 408,306.5 408.5,307 409,307.5C 409.498,310.817 409.665,314.15 409.5,317.5C 407.5,317.5 405.5,317.5 403.5,317.5C 403.167,306.833 402.833,306.833 402.5,317.5C 400.5,317.5 398.5,317.5 396.5,317.5C 396.299,307.031 395.632,307.031 394.5,317.5C 392.833,317.5 391.167,317.5 389.5,317.5C 389.5,313.5 389.5,309.5 389.5,305.5 Z"/></g>
<g><path style="opacity:1" fill="#161616" d="M 319.5,301.5 C 321.5,301.5 323.5,301.5 325.5,301.5C 325.5,302.833 325.5,304.167 325.5,305.5C 328.044,305.104 330.211,305.771 332,307.5C 332.821,310.554 332.655,313.554 331.5,316.5C 327.437,316.713 323.437,317.046 319.5,317.5C 319.5,312.167 319.5,306.833 319.5,301.5 Z"/></g>
<g><path style="opacity:1" fill="#c8c8c8" d="M 325.5,309.5 C 326.586,309.62 327.253,310.287 327.5,311.5C 327.167,312.167 326.833,312.833 326.5,313.5C 325.571,312.311 325.238,310.978 325.5,309.5 Z"/></g>
<g><path style="opacity:1" fill="#191919" d="M 377.5,305.5 C 386.883,304.253 390.216,308.253 387.5,317.5C 384.52,316.975 381.687,316.975 379,317.5C 374.388,316.658 373.554,314.491 376.5,311C 378.256,310.798 379.922,310.298 381.5,309.5C 379.688,309.574 377.688,309.241 375.5,308.5C 376.193,307.482 376.859,306.482 377.5,305.5 Z"/></g>
<g><path style="opacity:1" fill="#191919" d="M 347.5,312.5 C 345.076,312.192 342.743,312.526 340.5,313.5C 342.655,313.838 344.989,313.838 347.5,313.5C 347.426,315.411 346.426,316.578 344.5,317C 338.984,318.925 335.651,317.091 334.5,311.5C 335.651,305.909 338.984,304.075 344.5,306C 346.919,307.509 347.919,309.675 347.5,312.5 Z"/></g>
<g><path style="opacity:1" fill="#462f21" d="M 205.5,313.5 C 210.5,313.5 215.5,313.5 220.5,313.5C 216.101,314.191 211.601,314.858 207,315.5C 206.501,320.155 206.334,324.821 206.5,329.5C 206.167,329.5 205.833,329.5 205.5,329.5C 205.5,324.167 205.5,318.833 205.5,313.5 Z"/></g>
<g><path style="opacity:1" fill="#32353c" d="M 172.5,313.5 C 175.5,313.5 178.5,313.5 181.5,313.5C 183.556,314.216 185.723,314.883 188,315.5C 188.499,320.155 188.666,324.821 188.5,329.5C 188.5,338.167 188.5,346.833 188.5,355.5C 188.167,355.5 187.833,355.5 187.5,355.5C 187.987,347.872 187.32,340.372 185.5,333C 187.056,327.609 187.722,322.109 187.5,316.5C 186.5,316.5 185.5,316.5 184.5,316.5C 184.5,319.5 184.5,322.5 184.5,325.5C 181.221,324.969 179.887,322.969 180.5,319.5C 179.167,319.5 177.833,319.5 176.5,319.5C 177.472,323.428 177.806,327.262 177.5,331C 176.484,331.519 175.818,332.353 175.5,333.5C 177.313,339.342 177.98,345.342 177.5,351.5C 178.5,351.5 179.5,351.5 180.5,351.5C 180.172,346.125 180.505,340.792 181.5,335.5C 182.666,342.169 182.666,348.836 181.5,355.5C 178.5,355.5 175.5,355.5 172.5,355.5C 172.5,341.5 172.5,327.5 172.5,313.5 Z"/></g>
<g><path style="opacity:1" fill="#694e22" d="M 181.5,313.5 C 183.833,313.5 186.167,313.5 188.5,313.5C 189.488,318.64 189.821,323.974 189.5,329.5C 189.167,329.5 188.833,329.5 188.5,329.5C 188.666,324.821 188.499,320.155 188,315.5C 185.723,314.883 183.556,314.216 181.5,313.5 Z"/></g>
<g><path style="opacity:1" fill="#f4b93a" d="M 190.5,314.5 C 193.167,314.5 195.833,314.5 198.5,314.5C 198.5,316.833 198.5,319.167 198.5,321.5C 196.801,321.34 195.134,321.506 193.5,322C 192.549,322.718 192.383,323.551 193,324.5C 195.75,325.291 198.583,325.291 201.5,324.5C 201.525,321.04 202.192,317.706 203.5,314.5C 204.493,319.12 204.827,323.786 204.5,328.5C 199.819,328.331 195.152,327.998 190.5,327.5C 190.5,323.167 190.5,318.833 190.5,314.5 Z"/></g>
<g><path style="opacity:1" fill="#818181" d="M 289.5,328.5 C 292.287,327.523 295.287,327.19 298.5,327.5C 298.5,328.5 298.5,329.5 298.5,330.5C 298.5,331.167 298.167,331.5 297.5,331.5C 296.791,330.596 295.791,330.263 294.5,330.5C 295.263,329.732 296.263,329.232 297.5,329C 294.854,328.503 292.187,328.336 289.5,328.5 Z"/></g>
<g><path style="opacity:1" fill="#797979" d="M 324.5,328.5 C 327.355,327.197 330.355,327.197 333.5,328.5C 333.376,329.107 333.043,329.44 332.5,329.5C 330.052,328.527 327.385,328.194 324.5,328.5 Z"/></g>
<g><path style="opacity:1" fill="#191919" d="M 289.5,328.5 C 292.187,328.336 294.854,328.503 297.5,329C 296.263,329.232 295.263,329.732 294.5,330.5C 294.048,333.203 293.381,335.87 292.5,338.5C 291.491,335.527 291.491,332.527 292.5,329.5C 291.209,329.737 290.209,329.404 289.5,328.5 Z"/></g>
<g><path style="opacity:1" fill="#363636" d="M 387.5,327.5 C 389.337,327.639 389.67,328.306 388.5,329.5C 387.702,329.043 387.369,328.376 387.5,327.5 Z"/></g>
<g><path style="opacity:1" fill="#262626" d="M 373.5,328.5 C 374.649,328.791 375.316,329.624 375.5,331C 374.841,333.462 374.507,335.962 374.5,338.5C 372.167,338.5 369.833,338.5 367.5,338.5C 367.338,336.473 367.505,334.473 368,332.5C 369.396,330.473 371.062,330.14 373,331.5C 373.483,330.552 373.649,329.552 373.5,328.5 Z"/></g>
<g><path style="opacity:1" fill="#2f3446" d="M 187.5,355.5 C 185.5,355.5 183.5,355.5 181.5,355.5C 182.666,348.836 182.666,342.169 181.5,335.5C 180.505,340.792 180.172,346.125 180.5,351.5C 179.5,351.5 178.5,351.5 177.5,351.5C 177.98,345.342 177.313,339.342 175.5,333.5C 175.818,332.353 176.484,331.519 177.5,331C 177.806,327.262 177.472,323.428 176.5,319.5C 177.833,319.5 179.167,319.5 180.5,319.5C 179.887,322.969 181.221,324.969 184.5,325.5C 184.5,322.5 184.5,319.5 184.5,316.5C 185.5,316.5 186.5,316.5 187.5,316.5C 187.722,322.109 187.056,327.609 185.5,333C 187.32,340.372 187.987,347.872 187.5,355.5 Z"/></g>
<g><path style="opacity:1" fill="#2b2b2b" d="M 424.5,330.5 C 426.117,331.589 426.95,333.256 427,335.5C 428.574,334.016 429.907,332.349 431,330.5C 430.848,333.793 429.348,336.46 426.5,338.5C 425.914,338.291 425.414,337.957 425,337.5C 424.503,335.19 424.337,332.857 424.5,330.5 Z"/></g>
<g><path style="opacity:1" fill="#303543" d="M 220.5,313.5 C 220.833,313.5 221.167,313.5 221.5,313.5C 221.5,319.167 221.5,324.833 221.5,330.5C 237.5,330.5 253.5,330.5 269.5,330.5C 269.5,338.833 269.5,347.167 269.5,355.5C 248.5,355.5 227.5,355.5 206.5,355.5C 206.64,346.623 206.64,337.957 206.5,329.5C 206.334,324.821 206.501,320.155 207,315.5C 211.601,314.858 216.101,314.191 220.5,313.5 Z"/></g>
<g><path style="opacity:1" fill="#d6d6d6" d="M 369.5,332.5 C 370.5,332.5 371.5,332.5 372.5,332.5C 372.884,334.665 372.217,336.332 370.5,337.5C 369.548,335.955 369.215,334.288 369.5,332.5 Z"/></g>
<g><path style="opacity:1" fill="#202020" d="M 386.5,330.5 C 387.497,330.47 388.164,330.97 388.5,332C 388.022,334.226 387.355,336.392 386.5,338.5C 385.551,335.874 385.551,333.208 386.5,330.5 Z"/></g>
<g><path style="opacity:1" fill="#202020" d="M 412.5,327.5 C 413.586,327.62 414.253,328.287 414.5,329.5C 413.959,332.208 413.292,334.874 412.5,337.5C 410.579,338.641 408.579,338.808 406.5,338C 404.972,335.119 405.638,332.786 408.5,331C 409.784,330.316 410.951,330.483 412,331.5C 412.49,330.207 412.657,328.873 412.5,327.5 Z"/></g>
<g><path style="opacity:1" fill="#363636" d="M 318.5,330.5 C 322.349,330.019 324.349,331.686 324.5,335.5C 322.396,335.201 320.396,335.534 318.5,336.5C 320.021,336.88 321.687,337.046 323.5,337C 321.728,338.487 319.728,338.82 317.5,338C 316.083,335.257 316.416,332.757 318.5,330.5 Z"/></g>
<g><path style="opacity:1" fill="#303030" d="M 334.5,330.5 C 337.238,329.965 339.072,330.965 340,333.5C 342.196,330.875 345.03,329.875 348.5,330.5C 348.162,332.854 347.662,335.187 347,337.5C 345.938,338.097 344.772,338.43 343.5,338.5C 341.012,337.851 338.678,336.851 336.5,335.5C 333.192,335.383 332.859,336.05 335.5,337.5C 336.167,337.167 336.833,336.833 337.5,336.5C 338.696,336.846 338.696,337.346 337.5,338C 330.746,338.218 329.746,335.718 334.5,330.5 Z"/></g>
<g><path style="opacity:1" fill="#e1e1e1" d="M 343.5,332.5 C 346.063,333.998 346.063,335.665 343.5,337.5C 342.334,335.833 342.334,334.166 343.5,332.5 Z"/></g>
<g><path style="opacity:1" fill="#202020" d="M 324.5,328.5 C 327.385,328.194 330.052,328.527 332.5,329.5C 331.325,329.281 330.325,329.614 329.5,330.5C 328.787,332.776 328.287,335.109 328,337.5C 327.107,338.711 326.274,338.711 325.5,337.5C 326.785,334.979 327.452,332.313 327.5,329.5C 326.209,329.737 325.209,329.404 324.5,328.5 Z"/></g>
<g><path style="opacity:1" fill="#232323" d="M 350.5,330.5 C 354.263,331.087 357.929,331.087 361.5,330.5C 361.813,333.247 361.48,335.914 360.5,338.5C 359.04,330.721 357.373,330.721 355.5,338.5C 354.04,330.721 352.373,330.721 350.5,338.5C 349.795,335.911 349.795,333.244 350.5,330.5 Z"/></g>
<g><path style="opacity:1" fill="#212121" d="M 391.5,327.5 C 392.497,327.47 393.164,327.97 393.5,329C 392.73,332.249 391.73,335.415 390.5,338.5C 390.167,337.833 389.833,337.167 389.5,336.5C 390.586,333.58 391.252,330.58 391.5,327.5 Z"/></g>
<g><path style="opacity:1" fill="#dbdbdb" d="M 408.5,332.5 C 409.5,332.5 410.5,332.5 411.5,332.5C 411.716,334.681 410.883,336.347 409,337.5C 407.212,335.977 407.045,334.31 408.5,332.5 Z"/></g>
<g><path style="opacity:1" fill="#5e5e5e" d="M 422.5,332.5 C 423.404,333.209 423.737,334.209 423.5,335.5C 421.5,335.5 419.5,335.5 417.5,335.5C 417.5,334.5 417.5,333.5 417.5,332.5C 419.451,332.227 420.951,332.893 422,334.5C 422.464,333.906 422.631,333.239 422.5,332.5 Z"/></g>
<g><path style="opacity:1" fill="#2f2f2f" d="M 435.5,330.5 C 437.912,330.244 439.579,331.244 440.5,333.5C 438.851,334.988 436.851,335.988 434.5,336.5C 435.776,337.645 437.109,337.645 438.5,336.5C 439.696,336.846 439.696,337.346 438.5,338C 433.9,339.583 432.066,338.083 433,333.5C 433.698,332.309 434.531,331.309 435.5,330.5 Z"/></g>
<g><path style="opacity:1" fill="#242424" d="M 442.5,327.5 C 443.586,327.62 444.253,328.287 444.5,329.5C 443.981,332.601 443.147,335.601 442,338.5C 441.721,334.83 441.888,331.163 442.5,327.5 Z"/></g>
<g><path style="opacity:1" fill="#232323" d="M 447.5,330.5 C 452.068,330.083 453.568,332.083 452,336.5C 450.211,338.229 448.044,338.896 445.5,338.5C 445.107,335.487 445.774,332.82 447.5,330.5 Z"/></g>
<g><path style="opacity:1" fill="#e1e1e1" d="M 447.5,332.5 C 448.5,332.5 449.5,332.5 450.5,332.5C 450.884,334.665 450.217,336.332 448.5,337.5C 447.548,335.955 447.215,334.288 447.5,332.5 Z"/></g>
<g><path style="opacity:1" fill="#492635" d="M 205.5,329.5 C 205.833,329.5 206.167,329.5 206.5,329.5C 206.64,337.957 206.64,346.623 206.5,355.5C 206.167,355.5 205.833,355.5 205.5,355.5C 205.5,346.833 205.5,338.167 205.5,329.5 Z"/></g>
<g><path style="opacity:1" fill="#282828" d="M 378.5,330.5 C 380.5,330.5 382.5,330.5 384.5,330.5C 383.908,333.127 383.575,335.794 383.5,338.5C 381.167,338.5 378.833,338.5 376.5,338.5C 376.107,335.487 376.774,332.82 378.5,330.5 Z"/></g>
<g><path style="opacity:1" fill="#dcdcdc" d="M 379.5,332.5 C 382.063,333.998 382.063,335.665 379.5,337.5C 378.334,335.833 378.334,334.166 379.5,332.5 Z"/></g>
<g><path style="opacity:1" fill="#252525" d="M 394.5,330.5 C 395.999,331.678 396.999,333.345 397.5,335.5C 398.624,334.086 399.624,332.586 400.5,331C 401.332,330.312 401.998,330.479 402.5,331.5C 400.167,334.833 397.833,338.167 395.5,341.5C 395.617,337.981 395.283,334.314 394.5,330.5 Z"/></g>
<g><path style="opacity:1" fill="#1f1f1f" d="M 422.5,332.5 C 422.631,333.239 422.464,333.906 422,334.5C 420.951,332.893 419.451,332.227 417.5,332.5C 417.5,333.5 417.5,334.5 417.5,335.5C 417.47,336.497 417.97,337.164 419,337.5C 420.162,336.813 421.328,336.647 422.5,337C 420.728,338.487 418.728,338.82 416.5,338C 414.745,333.168 416.412,330.835 421.5,331C 422.056,331.383 422.389,331.883 422.5,332.5 Z"/></g>
<g><path style="opacity:1" fill="#212121" d="M 455.5,330.5 C 462.538,329.518 464.204,332.018 460.5,338C 458.866,338.494 457.199,338.66 455.5,338.5C 455.719,339.675 455.386,340.675 454.5,341.5C 454.167,340.833 453.833,340.167 453.5,339.5C 454.328,336.521 454.995,333.521 455.5,330.5 Z"/></g>
<g><path style="opacity:1" fill="#dadada" d="M 457.5,332.5 C 458.5,332.5 459.5,332.5 460.5,332.5C 460.716,334.681 459.883,336.347 458,337.5C 456.212,335.977 456.045,334.31 457.5,332.5 Z"/></g>
<g><path style="opacity:1" fill="#202020" d="M 298.5,330.5 C 299.165,332.698 299.832,335.031 300.5,337.5C 302.196,335.454 303.529,333.121 304.5,330.5C 304.949,333.044 304.949,335.71 304.5,338.5C 302.167,338.5 299.833,338.5 297.5,338.5C 297.5,336.167 297.5,333.833 297.5,331.5C 298.167,331.5 298.5,331.167 298.5,330.5 Z"/></g>
<g><path style="opacity:1" fill="#282828" d="M 308.5,327.5 C 310.048,327.821 310.715,328.821 310.5,330.5C 314.225,330.78 315.392,332.78 314,336.5C 311.894,338.291 309.394,338.958 306.5,338.5C 307.008,334.803 307.674,331.136 308.5,327.5 Z"/></g>
<g><path style="opacity:1" fill="#cdcdcd" d="M 309.5,332.5 C 310.5,332.5 311.5,332.5 312.5,332.5C 312.884,334.665 312.217,336.332 310.5,337.5C 308.296,336.218 307.962,334.551 309.5,332.5 Z"/></g>
<g><path style="opacity:1" fill="#b45153" d="M 188.5,329.5 C 188.833,329.5 189.167,329.5 189.5,329.5C 190.472,330.399 191.138,331.566 191.5,333C 190.595,339.8 190.261,346.633 190.5,353.5C 194.884,353.826 199.217,353.492 203.5,352.5C 204.467,344.89 204.8,337.223 204.5,329.5C 204.833,329.5 205.167,329.5 205.5,329.5C 205.5,338.167 205.5,346.833 205.5,355.5C 199.833,355.5 194.167,355.5 188.5,355.5C 188.5,346.833 188.5,338.167 188.5,329.5 Z"/></g>
<g><path style="opacity:1" fill="#ee5048" d="M 189.5,329.5 C 194.5,329.5 199.5,329.5 204.5,329.5C 204.8,337.223 204.467,344.89 203.5,352.5C 199.217,353.492 194.884,353.826 190.5,353.5C 190.261,346.633 190.595,339.8 191.5,333C 191.138,331.566 190.472,330.399 189.5,329.5 Z"/></g>
</svg>
